<svg width="2598" height="2598" xmlns="http://www.w3.org/2000/svg" xmlns:xlink="http://www.w3.org/1999/xlink" xml:space="preserve" overflow="hidden"><g><path d="M537.473 772.047C454.823 689.398 454.823 555.396 537.473 472.746L821.47 188.75C904.119 106.1 1038.12 106.1 1120.77 188.75L1404.77 472.746C1487.42 555.396 1487.42 689.398 1404.77 772.047L1120.77 1056.04C1038.12 1138.69 904.119 1138.69 821.47 1056.04Z" fill="#04B4BD" fill-rule="evenodd"/><path d="M537.473 2125.43C454.824 2042.78 454.824 1908.78 537.473 1826.13L821.47 1542.13C904.12 1459.48 1038.12 1459.48 1120.77 1542.13L1404.77 1826.13C1487.42 1908.78 1487.42 2042.78 1404.77 2125.43L1120.77 2409.43C1038.12 2492.08 904.12 2492.08 821.47 2409.43Z" fill="#04B4BD" fill-rule="evenodd"/><path d="M1214.16 1448.74C1131.52 1366.09 1131.52 1232.09 1214.16 1149.44L1498.16 865.441C1580.81 782.792 1714.81 782.792 1797.46 865.441L2081.46 1149.44C2164.11 1232.09 2164.11 1366.09 2081.46 1448.74L1797.46 1732.74C1714.81 1815.39 1580.81 1815.39 1498.16 1732.74Z" fill="#04B4BD" fill-rule="evenodd"/><path d="M1320.57 1412.02C1258.2 1349.65 1258.2 1248.53 1320.57 1186.16L1534.88 971.842C1597.25 909.472 1698.37 909.472 1760.74 971.842L1975.06 1186.16C2037.43 1248.53 2037.43 1349.65 1975.06 1412.02L1760.74 1626.33C1698.37 1688.71 1597.25 1688.71 1534.88 1626.33Z" fill="#FFFFFF" fill-rule="evenodd"/><path d="M643.874 735.329C581.504 672.958 581.504 571.836 643.874 509.465L858.189 295.151C920.559 232.78 1021.68 232.78 1084.05 295.151L1298.37 509.465C1360.74 571.836 1360.74 672.958 1298.37 735.329L1084.05 949.643C1021.68 1012.01 920.559 1012.01 858.189 949.643Z" fill="#FFFFFF" fill-rule="evenodd"/><path d="M808.127 678.645C777.062 647.58 777.062 597.213 808.127 566.148L914.872 459.404C945.937 428.338 996.303 428.338 1027.37 459.404L1134.11 566.148C1165.18 597.213 1165.18 647.58 1134.11 678.645L1027.37 785.39C996.303 816.455 945.937 816.455 914.872 785.39Z" fill="#04B4BD" fill-rule="evenodd"/></g></svg>